<svg width="1280" height="1280" viewBox="0 0 1280 1280" fill="none" xmlns="http://www.w3.org/2000/svg">
<rect width="1280" height="1280" fill="#FFF2DF"/>
<path d="M567.203 462.656C552.906 462.656 544.469 453.75 544.469 438.516V413.906C544.469 398.672 552.906 389.766 567.203 389.766H586.891C588.766 362.578 611.5 340.547 639.391 340.547C667.281 340.547 690.016 362.578 691.656 389.766H711.578C725.641 389.766 734.312 398.672 734.312 413.906V438.516C734.312 453.75 725.641 462.656 711.578 462.656H567.203ZM639.391 412.5C650.875 412.5 660.016 402.891 660.016 391.641C660.016 380.391 650.875 371.016 639.391 371.016C627.906 371.016 618.531 380.391 618.531 391.641C618.531 402.891 627.906 412.5 639.391 412.5ZM514.938 913.359C465.25 913.359 438.766 886.641 438.766 836.25V481.406C438.766 430.781 465.25 404.297 513.062 404.297H517.984C517.281 406.172 516.812 408.75 516.812 411.328V438.516C516.812 468.75 537.203 490.312 567.203 490.312H711.578C741.344 490.312 761.734 468.75 761.734 438.516V411.328C761.734 408.75 761.5 406.172 760.797 404.297H765.719C813.531 404.297 839.781 430.781 839.781 481.406V836.25C839.781 886.641 813.531 913.359 763.609 913.359H514.938Z" fill="black"/>
</svg>
